<mxfile host="65bd71144e" scale="1" border="30">
    <diagram id="yYkRMcHpo2gikTCNRhjN" name="Page-1">
        <mxGraphModel dx="1431" dy="1992" grid="1" gridSize="10" guides="1" tooltips="1" connect="1" arrows="1" fold="1" page="1" pageScale="1" pageWidth="827" pageHeight="1169" background="#FFFFFF" math="0" shadow="0">
            <root>
                <mxCell id="0"/>
                <mxCell id="1" parent="0"/>
                <mxCell id="20" value="" style="rounded=0;whiteSpace=wrap;html=1;fontSize=16;strokeColor=#6600CC;" vertex="1" parent="1">
                    <mxGeometry x="40" y="-10" width="630" height="500" as="geometry"/>
                </mxCell>
                <mxCell id="17" value="" style="rounded=0;whiteSpace=wrap;html=1;fontSize=16;strokeColor=#6600CC;" vertex="1" parent="1">
                    <mxGeometry x="90" y="40" width="530" height="190" as="geometry"/>
                </mxCell>
                <mxCell id="15" value="" style="rounded=0;whiteSpace=wrap;html=1;fontSize=16;strokeColor=#6600CC;" vertex="1" parent="1">
                    <mxGeometry x="90" y="270" width="530" height="190" as="geometry"/>
                </mxCell>
                <mxCell id="24" style="edgeStyle=orthogonalEdgeStyle;html=1;strokeColor=#9933FF;strokeWidth=3;fontSize=16;sourcePerimeterSpacing=50;targetPerimeterSpacing=40;elbow=vertical;" edge="1" parent="1" source="2">
                    <mxGeometry relative="1" as="geometry">
                        <mxPoint x="846" y="180" as="targetPoint"/>
                    </mxGeometry>
                </mxCell>
                <mxCell id="2" value="Server Over&lt;br style=&quot;font-size: 16px;&quot;&gt;Internet" style="aspect=fixed;html=1;points=[];align=center;image;fontSize=16;image=img/lib/azure2/compute/Virtual_Machine.svg;" vertex="1" parent="1">
                    <mxGeometry x="455" y="103" width="69" height="64" as="geometry"/>
                </mxCell>
                <mxCell id="11" style="edgeStyle=none;html=1;strokeColor=#9933FF;strokeWidth=3;fontSize=16;" edge="1" parent="1">
                    <mxGeometry relative="1" as="geometry">
                        <mxPoint x="420" y="349.5" as="targetPoint"/>
                        <mxPoint x="310" y="349.5" as="sourcePoint"/>
                    </mxGeometry>
                </mxCell>
                <mxCell id="3" value="Server Over&amp;nbsp;&lt;br style=&quot;font-size: 16px;&quot;&gt;Private Endpoint" style="aspect=fixed;html=1;points=[];align=center;image;fontSize=16;image=img/lib/azure2/compute/Virtual_Machine.svg;" vertex="1" parent="1">
                    <mxGeometry x="200" y="318" width="69" height="64" as="geometry"/>
                </mxCell>
                <mxCell id="22" style="edgeStyle=elbowEdgeStyle;elbow=vertical;html=1;strokeColor=#9933FF;strokeWidth=3;fontSize=16;sourcePerimeterSpacing=50;targetPerimeterSpacing=40;" edge="1" parent="1" source="4" target="5">
                    <mxGeometry relative="1" as="geometry">
                        <Array as="points">
                            <mxPoint x="670" y="350"/>
                        </Array>
                    </mxGeometry>
                </mxCell>
                <mxCell id="4" value="Private Endpoint" style="aspect=fixed;html=1;points=[];align=center;image;fontSize=16;image=img/lib/azure2/networking/Private_Endpoint.svg;" vertex="1" parent="1">
                    <mxGeometry x="460" y="322.96000000000004" width="59" height="54.08" as="geometry"/>
                </mxCell>
                <mxCell id="14" style="edgeStyle=none;html=1;strokeColor=#9933FF;strokeWidth=3;fontSize=16;" edge="1" parent="1">
                    <mxGeometry relative="1" as="geometry">
                        <mxPoint x="1090" y="228" as="targetPoint"/>
                        <mxPoint x="930" y="228" as="sourcePoint"/>
                    </mxGeometry>
                </mxCell>
                <mxCell id="5" value="Storage Sync Service" style="aspect=fixed;html=1;points=[];align=center;image;fontSize=16;image=img/lib/azure2/storage/Storage_Sync_Services.svg;" vertex="1" parent="1">
                    <mxGeometry x="810" y="198" width="72" height="60" as="geometry"/>
                </mxCell>
                <mxCell id="7" value="Azure Files" style="aspect=fixed;html=1;points=[];align=center;image;fontSize=16;image=img/lib/azure2/storage/Azure_Fileshare.svg;" vertex="1" parent="1">
                    <mxGeometry x="1120" y="194" width="68" height="68" as="geometry"/>
                </mxCell>
                <mxCell id="21" value="&amp;nbsp;VNet" style="aspect=fixed;html=1;points=[];align=left;image;fontSize=14;image=img/lib/azure2/networking/Virtual_Networks.svg;strokeColor=#6600CC;labelPosition=right;verticalLabelPosition=middle;verticalAlign=middle;" vertex="1" parent="1">
                    <mxGeometry x="50" width="33.5" height="20" as="geometry"/>
                </mxCell>
            </root>
        </mxGraphModel>
    </diagram>
</mxfile>